<svg width="100" height="100" viewBox="0 0 24 24" xmlns="http://www.w3.org/2000/svg">
  <title>Geoglyph App Logo</title>

  <rect width="24" height="24" rx="4" fill="#18181b"/>

  <g transform="rotate(-15, 12, 12)" stroke-linecap="round" stroke-linejoin="round" fill="none">

    <rect
      x="8" y="8" width="8" height="8" rx="0.5"
      stroke="white"
      stroke-width="1"
    />

    <path
      d="M 11 3 L 11 5 M 13 3 L 13 5 M 11 21 L 11 19 M 13 21 L 13 19 M 3 11 L 5 11 M 3 13 L 5 13 M 21 11 L 19 11 M 21 13 L 19 13 M 5 11 L 5 5 L 11 5 M 13 5 L 19 5 L 19 11 M 19 13 L 19 19 L 13 19 M 11 19 L 5 19 L 5 13"
      stroke="white"
      stroke-width="1"
    />
  </g>
</svg>